<svg xmlns="http://www.w3.org/2000/svg" fill="currentColor" viewBox="0 0 24 24"
     data-icon="PencilStandard">
    <path fill="currentColor" fill-rule="evenodd"
          d="M19.121 1.707a3 3 0 0 0-4.242 0l-1.586 1.586-.707.707-11 11A2 2 0 0 0 1 16.414V21a2 2 0 0 0 2 2h4.586A2 2 0 0 0 9 22.414l11-11 .707-.707 1.586-1.586a3 3 0 0 0 0-4.242L19.12 1.707ZM15.586 7 14 5.414l-11 11V19a2 2 0 0 1 2 2h2.586l11-11L17 8.414 6.707 18.707l-1.414-1.414L15.586 7Zm.707-3.879a1 1 0 0 1 1.414 0l3.172 3.172a1 1 0 0 1 0 1.414L20 8.586 15.414 4l.879-.879Z"
          clip-rule="evenodd"/>
</svg>