<svg xmlns="http://www.w3.org/2000/svg" fill="none" aria-hidden="true" data-icon="CircleQuestionMarkStandard" viewBox="0 0 24 24">
  <path fill="currentColor" fill-rule="evenodd" d="M2 12C2 6.477 6.477 2 12 2s10 4.477 10 10-4.477 10-10 10S2 17.523 2 12ZM12 0C5.373 0 0 5.373 0 12s5.373 12 12 12 12-5.373 12-12S18.627 0 12 0Zm0 8c-1.317 0-2 .743-2 1.5H8C8 7.257 10.003 6 12 6c1.997 0 4 1.257 4 3.5 0 1.349-1.08 2.268-2.178 2.68-.265.1-.49.25-.636.411-.14.156-.186.292-.186.409v1h-2v-1c0-1.435 1.168-2.335 2.119-2.692.729-.274.881-.66.881-.808 0-.757-.683-1.5-2-1.5Zm1.5 8.5a1.5 1.5 0 1 1-3 0 1.5 1.5 0 0 1 3 0Z" clip-rule="evenodd"/>
</svg>
